<svg id="Ebene_1" data-name="Ebene 1" xmlns="http://www.w3.org/2000/svg" viewBox="0 0 982.33 353.87"><defs><style>.cls-1{fill:#203e72;}</style></defs><path class="cls-1" d="M132.2,264.8a50.79,50.79,0,0,1-50.77-50.73h20a30.74,30.74,0,0,0,61.48-.35h0c-.19-14.17-11.45-24.52-33.47-30.77-39.68-11.47-48-33.72-48-50.35a50.73,50.73,0,0,1,101.46,0h-20a30.74,30.74,0,0,0-61.47,0c0,7.5,2.9,13.7,8.88,19,5.65,5,13.94,9.08,24.63,12.16,30.91,8.78,48,26.66,48,50.34A50.79,50.79,0,0,1,132.2,264.8Z"/><path class="cls-1" d="M129.53,305.5c-49.62-1.42-88.8-42.77-88.8-92.39v-172h20V213.21c0,38.6,30.27,70.9,68.83,72.31a71.54,71.54,0,0,0,74.07-68.92c0-.83,0-1.67,0-2.5V41.17h20V214.1A91.57,91.57,0,0,1,132,305.54Z"/><path class="cls-1" d="M135.26,346.27C61,348,0,288,0,214.11H20A112.32,112.32,0,0,0,135.46,326.26C196.34,324.53,244.4,273.8,244.4,212.9V20.4H132.2V.41H264.39V212.82C264.39,284.88,207.27,344.6,135.26,346.27Z"/><path class="cls-1" d="M385.24,57.85q0,11.52-7.41,18.34T358.35,83q-12.08-.12-19.17-7t-7.09-18.15v-4h14.37v3.53q0,5.94,3.22,9.07a11.9,11.9,0,0,0,8.67,3.13q5.82,0,8.95-3.25t3.13-9V13.44H344.91V0h40.33Z"/><path class="cls-1" d="M445.38,77.67A30.81,30.81,0,0,1,427.23,83a30.44,30.44,0,0,1-15.39-3.81,26.53,26.53,0,0,1-10.35-10.65,32.82,32.82,0,0,1-3.68-15.77,31.71,31.71,0,0,1,3.75-15.7,26.26,26.26,0,0,1,10.34-10.4,30.14,30.14,0,0,1,15-3.69,29.79,29.79,0,0,1,14.59,3.5,24.91,24.91,0,0,1,9.82,9.57A27.62,27.62,0,0,1,454.73,50a32.57,32.57,0,0,1-.62,7H411.75a14.24,14.24,0,0,0,4.49,10.37,15.53,15.53,0,0,0,11,3.93,18.06,18.06,0,0,0,8.77-2,10.54,10.54,0,0,0,5-5.6h13.82A22.32,22.32,0,0,1,445.38,77.67ZM440.3,47.45a12.36,12.36,0,0,0-3.93-9.39,14.21,14.21,0,0,0-9.88-3.44,15,15,0,0,0-10.22,3.5A12.52,12.52,0,0,0,412,47.45Z"/><path class="cls-1" d="M524,24.78V81.33H510.42v-8a20.05,20.05,0,0,1-8.33,7.06A27.71,27.71,0,0,1,490,83a26.54,26.54,0,0,1-14-3.68,24.73,24.73,0,0,1-9.45-10.41,34.67,34.67,0,0,1-3.34-15.64,34.49,34.49,0,0,1,3.53-15.89,25.59,25.59,0,0,1,9.88-10.65,30.08,30.08,0,0,1,26.2-1.4A20,20,0,0,1,511,32l1.11-7.18ZM505.12,65.35q4.5-4.83,4.49-12.58t-4.36-12.42q-4.37-4.66-11.62-4.67A15,15,0,0,0,482,40.42q-4.36,4.74-4.37,12.48t4.4,12.51a14.86,14.86,0,0,0,11.46,4.77A15.12,15.12,0,0,0,505.12,65.35Z"/><path class="cls-1" d="M586,29.2q5.73,6.24,5.73,17.13v35H577.44V49.61q0-13.8-11.27-13.81-6.07,0-9.39,3.53t-3.31,9.54V81.33H539.41V24.78h11.77l1.05,6.81a18.65,18.65,0,0,1,7.56-6.26A24.22,24.22,0,0,1,570.38,23Q580.22,23,586,29.2Z"/><path class="cls-1" d="M638.06,44.66v12.7H607.48V44.66Z"/><path class="cls-1" d="M337.54,122.62h14.87V174q0,9.42,5.32,13.69T371.3,192q8.73,0,13.87-4.56T390.31,174V122.62h14.87v52q0,10-4.4,17a27.42,27.42,0,0,1-12,10.46,41.43,41.43,0,0,1-17.44,3.5,40.87,40.87,0,0,1-17.53-3.56,27.12,27.12,0,0,1-11.92-10.53q-4.32-7-4.31-16.88Z"/><path class="cls-1" d="M421.53,116.92h14.19v37a17.19,17.19,0,0,1,7.24-6.13,23.55,23.55,0,0,1,10.16-2.23q10,0,15.55,6.17c3.68,4.1,5.51,9.84,5.51,17.18v35H460V172.24q0-7.87-3.44-10.84a11.57,11.57,0,0,0-7.77-3,15.11,15.11,0,0,0-9.14,3q-4,3-4.06,10.09V204H421.53Z"/><path class="cls-1" d="M522.5,147.4v12.14c-1.53-.17-2.65-.25-3.35-.25q-7.62,0-11.74,4.24t-4.11,12V204H489.11V147.4h12.82l1.24,8.11a10.79,10.79,0,0,1,5-6.44,17.32,17.32,0,0,1,9-2.23A31.42,31.42,0,0,1,522.5,147.4Z"/><path class="cls-1" d="M613.86,151.24q5.64,5.64,5.64,15.42V204H605.44V170.07q0-6.07-2.88-9.11a10.06,10.06,0,0,0-7.65-3,11,11,0,0,0-8.71,3.59,13.49,13.49,0,0,0-3.12,9.17V204H569.14V170.07q0-5.7-2.91-8.92a10.22,10.22,0,0,0-8-3.22,10.42,10.42,0,0,0-8.33,3.65,13.52,13.52,0,0,0-3.13,9.11V204H532.59V147.4h12.95l.74,6.07a17.43,17.43,0,0,1,6.91-5.76,21.24,21.24,0,0,1,9.32-2.11,21.62,21.62,0,0,1,11.09,2.85,16.57,16.57,0,0,1,7.06,7.81,18.43,18.43,0,0,1,7.31-7.87,21.57,21.57,0,0,1,11.09-2.79Q608.22,145.6,613.86,151.24Z"/><path class="cls-1" d="M692,147.4V204H678.46v-8a19.86,19.86,0,0,1-8.33,7.06,27.52,27.52,0,0,1-12.1,2.6,26.52,26.52,0,0,1-14-3.68,24.73,24.73,0,0,1-9.45-10.41A37.9,37.9,0,0,1,634.8,160a25.52,25.52,0,0,1,9.88-10.65,28.11,28.11,0,0,1,14.58-3.75A27.73,27.73,0,0,1,670.88,148a20.07,20.07,0,0,1,8.21,6.62l1.11-7.18ZM673.17,188q4.49-4.83,4.49-12.57T673.29,163q-4.37-4.68-11.61-4.68A15,15,0,0,0,650.07,163q-4.38,4.74-4.37,12.48T650.1,188a14.86,14.86,0,0,0,11.46,4.77A15.14,15.14,0,0,0,673.17,188Z"/><path class="cls-1" d="M707.92,159.88a26.31,26.31,0,0,1,10.59-10.53,31.89,31.89,0,0,1,15.58-3.75q11.64,0,19.39,6.1A23.36,23.36,0,0,1,762.4,168H747.9a12.43,12.43,0,0,0-4.92-7.41,15.4,15.4,0,0,0-9-2.57,14.36,14.36,0,0,0-11.24,4.74q-4.25,4.74-4.24,12.85,0,7.88,4.12,12.64t11.24,4.77a15.4,15.4,0,0,0,9.32-2.73,11.72,11.72,0,0,0,4.74-7.06h14.5a23.58,23.58,0,0,1-9,16.2q-7.77,6.16-19.17,6.16a32.25,32.25,0,0,1-15.7-3.74,26.17,26.17,0,0,1-10.59-10.6,32.24,32.24,0,0,1-3.75-15.76A31.8,31.8,0,0,1,707.92,159.88Z"/><path class="cls-1" d="M774.78,116.92H789v37a17.16,17.16,0,0,1,7.25-6.13,23.47,23.47,0,0,1,10.15-2.23q10,0,15.55,6.17c3.68,4.1,5.51,9.84,5.51,17.18v35H813.25V172.24q0-7.87-3.44-10.84a11.57,11.57,0,0,0-7.77-3,15.11,15.11,0,0,0-9.14,3q-4,3-4,10.09V204H774.78Z"/><path class="cls-1" d="M886.65,200.3a30.88,30.88,0,0,1-18.15,5.32,30.44,30.44,0,0,1-15.39-3.81,26.53,26.53,0,0,1-10.35-10.65,32.8,32.8,0,0,1-3.68-15.76,31.75,31.75,0,0,1,3.75-15.71,26.39,26.39,0,0,1,10.34-10.4,30.14,30.14,0,0,1,15-3.69,29.79,29.79,0,0,1,14.59,3.5,25,25,0,0,1,9.81,9.57A27.55,27.55,0,0,1,896,172.61a32.57,32.57,0,0,1-.62,7H853A14.24,14.24,0,0,0,857.51,190a15.48,15.48,0,0,0,11,3.94,18,18,0,0,0,8.77-2,10.6,10.6,0,0,0,5.05-5.6h13.81A22.34,22.34,0,0,1,886.65,200.3Zm-5.08-30.23a12.36,12.36,0,0,0-3.93-9.38,14.16,14.16,0,0,0-9.88-3.44,15,15,0,0,0-10.22,3.5,12.44,12.44,0,0,0-4.27,9.32Z"/><path class="cls-1" d="M941.16,147.4v12.14a33.5,33.5,0,0,0-3.35-.25c-5.07,0-9,1.42-11.73,4.24s-4.12,6.83-4.12,12V204H907.77V147.4h12.82l1.24,8.11a10.79,10.79,0,0,1,5-6.44,17.32,17.32,0,0,1,9-2.23A31.32,31.32,0,0,1,941.16,147.4Z"/><path class="cls-1" d="M982.33,167.28V180H951.75v-12.7Z"/><path class="cls-1" d="M339.12,254.76a23.65,23.65,0,0,1,10.22-8.61,36.1,36.1,0,0,1,15.21-3,36.61,36.61,0,0,1,15.11,3A24.15,24.15,0,0,1,390,254.51a22.07,22.07,0,0,1,3.71,12.7h-15.3a10.54,10.54,0,0,0-4.12-8.39q-4-3.19-10.5-3.19-5.94,0-9.5,2.94a9.38,9.38,0,0,0-3.57,7.59c0,3.06,1,5.31,3.13,6.75a24.65,24.65,0,0,0,8.33,3.41l13.32,3.28a29.63,29.63,0,0,1,14.74,8q5.64,5.79,5.64,14.9a23.35,23.35,0,0,1-3.81,13.31,24.74,24.74,0,0,1-10.78,8.83,39.28,39.28,0,0,1-16.2,3.13q-13.68,0-22.26-6.66T333.51,303h15.3a11.07,11.07,0,0,0,4.77,8.95q4.53,3.25,11.77,3.25,7,0,11-3a9.67,9.67,0,0,0,4-8.18q0-4.46-2.79-6.75a18.19,18.19,0,0,0-7.31-3.4l-13.62-3.29q-10-2.42-15.55-8.08t-5.51-14.65A23.43,23.43,0,0,1,339.12,254.76Z"/><path class="cls-1" d="M427.91,269.5H463v56.56H448.73V281.15H427.91v44.91H413.73V281.15H403V269.5h10.78V254.64h14.18ZM463,241.75a9.57,9.57,0,0,1,0,13.51,9.48,9.48,0,0,1-7,2.78,9.68,9.68,0,0,1-7.06-2.78,9,9,0,0,1-2.85-6.69,9.15,9.15,0,0,1,2.79-6.82A9.79,9.79,0,0,1,456,239,9.63,9.63,0,0,1,463,241.75Z"/><path class="cls-1" d="M547.77,281.15H537.36v44.91H523.3l-.12-44.91h-9.79V269.5h9.79v-5.88q0-6.45-3.87-10.19t-10.25-3.75c-4.5,0-8,1.29-10.53,3.87a14,14,0,0,0-3.78,10.19v5.76h13.31v11.65H494.75v44.91H480.69V281.15h-7.75V269.5h7.75v-5.76q0-12.31,7.46-19.42t20.91-7.09q13.44,0,20.87,7.19t7.43,19.2v5.88h10.41Z"/><path class="cls-1" d="M609.46,269.5v56.56H597.69l-1.05-7.13a19.78,19.78,0,0,1-7.59,6.57,22.93,22.93,0,0,1-10.25,2.23q-10,0-15.48-6t-5.45-16.2v-36h14.18v33.58q0,6.44,3,9.32c2,1.92,4.79,2.88,8.43,2.88a11,11,0,0,0,8.64-3.56q3.18-3.57,3.19-9.64V269.5Z"/><path class="cls-1" d="M671.13,273.93q5.72,6.22,5.72,17.13v35H662.61V294.34q0-13.81-11.28-13.81-6.06,0-9.38,3.53t-3.31,9.54v32.46H624.58V269.5h11.77l1,6.82a18.69,18.69,0,0,1,7.55-6.26,24.16,24.16,0,0,1,10.6-2.35Q665.39,267.71,671.13,273.93Z"/><path class="cls-1" d="M748.58,269.5v56.56q0,12.69-8.11,20.25t-22.05,7.56q-12.21,0-20.13-6.35a24.61,24.61,0,0,1-9.17-17.13h14.06a12.17,12.17,0,0,0,5.14,8.18,17.41,17.41,0,0,0,10.1,2.85q7.62,0,11.8-4.06t4.18-10.81V316.27a18.11,18.11,0,0,1-7.68,6.44,26.41,26.41,0,0,1-11.34,2.36,27.14,27.14,0,0,1-14-3.63,24.37,24.37,0,0,1-9.5-10.1,34,34,0,0,1,.12-29.67,25.61,25.61,0,0,1,9.63-10.28,26.88,26.88,0,0,1,14-3.68,25.85,25.85,0,0,1,11.52,2.48,17.41,17.41,0,0,1,7.62,6.75l.81-7.44ZM729.47,308a16.27,16.27,0,0,0,4.43-11.71,16.08,16.08,0,0,0-4.43-11.61,15,15,0,0,0-11.3-4.62,14.21,14.21,0,0,0-11.06,4.62,16.86,16.86,0,0,0-4.18,11.74,16.42,16.42,0,0,0,4.25,11.67,14.31,14.31,0,0,0,11,4.56A14.92,14.92,0,0,0,729.47,308Z"/></svg>